<svg height='300px' width='300px'  fill="#000000" xmlns="http://www.w3.org/2000/svg" viewBox="0 0 24 24" x="0px" y="0px"><title>_</title><g><path d="M9.46481,6H6A2,2,0,0,0,4,8v8a2,2,0,0,0,2,2H9.46481a1.00008,1.00008,0,0,0,.83207-.44531l3.33331-5a.99994.99994,0,0,0,0-1.10938l-3.33331-5A1.00008,1.00008,0,0,0,9.46481,6Zm8,0H13.86853a1,1,0,0,0-.83206,1.55469l2.59372,3.89062a.99994.99994,0,0,1,0,1.10938l-2.59372,3.89062A1,1,0,0,0,13.86853,18h3.59628a1.00008,1.00008,0,0,0,.83207-.44531l2.59371-3.89057a3,3,0,0,0,0-3.32824L18.29688,6.44531A1.00008,1.00008,0,0,0,17.46481,6Z"></path></g></svg>